<!DOCTYPE svg PUBLIC "-//W3C//DTD SVG 1.1//EN" "http://www.w3.org/Graphics/SVG/1.1/DTD/svg11.dtd">
<svg version="1.1" xmlns="http://www.w3.org/2000/svg" xmlns:xlink="http://www.w3.org/1999/xlink" x="0px" y="0px"
	 width="91.082px" height="10.019px" viewBox="0 0 91.082 10.019" enable-background="new 0 0 91.082 10.019" xml:space="preserve">
<path fill="#322623" d="M27.041,3.771c-0.014,0.258-0.166,0.518-0.408,0.582c-0.115,0.031-0.322,0.017-0.424-0.06
	c-0.201-0.148-0.277-0.478-0.176-0.715c0.053-0.123,0.149-0.206,0.273-0.231c0.106-0.021,0.262-0.029,0.337,0.07
	c0.063,0.083,0.068,0.306-0.063,0.33c-0.101,0.018-0.068-0.124-0.152-0.126c-0.063,0-0.117,0.123-0.135,0.174
	c-0.033,0.099,0.015,0.213,0.084,0.28c0.123,0.116,0.279,0.051,0.375-0.078c0.228-0.309,0.107-0.615-0.072-0.913
	c-0.174-0.292-0.401-0.545-0.666-0.74c-0.737-0.546-1.674-0.59-2.528-0.412c-3.037,0.63-8.371,5.089-12.328,5.908
	C8.301,8.432,3.234,7.389,0,4.076l0.02-0.081C3.234,7.299,7.9,7.807,10.758,7.214c3.615-0.75,9.226-4.67,12.783-5.409
	c0.839-0.175,1.757-0.131,2.492,0.386c0.244,0.17,0.455,0.391,0.63,0.641c0.173,0.247,0.366,0.548,0.38,0.868
	C27.044,3.723,27.043,3.747,27.041,3.771"/>
<path fill="#322623" d="M22.487,4.555c-0.032,0.389,0.288,0.695,0.51,0.825c0.761,0.447,1.611-0.676,1.52-1.722
	c-0.154-1.729-2.691-0.509-3.289-0.25c-2.384,1.038-4.503,2.914-6.819,4.184C12.457,8.674,9.692,9.236,7.92,7.279
	C6.545,5.76,7.076,2.516,9.087,2.346c0.728-0.06,1.709,0.406,1.831,1.227c0.171,1.154-0.525,1.537-1.166,1.609
	c-0.284,0.031-0.574-0.276-0.586-0.58C9.16,4.376,8.82,4.491,8.828,4.68c0.037,0.856,0.763,0.9,1.232,0.814
	c0.6-0.107,1.137-0.392,1.214-1.313c0.091-1.081-0.677-2.004-1.54-2.168C9.476,1.964,9.187,1.969,8.931,2.017
	C7.622,2.276,6.525,3.768,6.886,5.659c0.976,5.078,6.368,2.989,8.731,1.56c1.4-0.848,2.724-1.909,4.136-2.736
	c0.708-0.41,1.43-0.766,2.17-1.057c0.428-0.172,0.866-0.278,1.306-0.318c0.3-0.042,0.567,0.058,0.808,0.307
	c0.337,0.332,0.146,1.007-0.117,1.308c-0.152,0.174-0.379,0.231-0.569,0.191c-0.238-0.052-0.342-0.321-0.508-0.517
	C22.707,4.237,22.513,4.297,22.487,4.555"/>
<path fill-rule="evenodd" clip-rule="evenodd" fill="#322623" d="M2.457,8.211C2.424,8.219,2.383,8.231,2.35,8.236
	c-0.202,0.043-0.561,0-0.659-0.291C1.543,7.494,1.98,7.024,2.25,6.944c0.671-0.192,1.346,0.031,1.982,0.32
	c0.321,0.14,0.633,0.302,0.95,0.433c0.119,0.049,0.769,0.174,0.795,0.385C6.01,8.387,5.791,8.195,5.638,8.127
	c-0.577-0.262-1.107-0.344-1.71-0.381C3.379,7.713,2.961,8.068,2.457,8.211"/>
<path fill-rule="evenodd" clip-rule="evenodd" fill="#322623" d="M6.477,6.586C6.507,6.693,6.169,6.524,6.165,6.52
	C5.412,6.012,4.677,5.296,3.967,4.682c-0.314-0.27-1.222-0.898-0.961-1.575c0.263-0.675,0.916-0.011,1.101,0.377
	C4.263,3.803,4.392,4.138,4.56,4.441c0.27,0.478,0.641,0.834,1,1.18C5.847,5.894,6.337,6.098,6.477,6.586"/>
<path fill-rule="evenodd" clip-rule="evenodd" fill="#322623" d="M6.168,7.387C6.16,7.408,6.15,7.428,6.146,7.444
	c-0.035,0.092-1.98-1.221-2.141-1.326C3.202,5.59,2.315,5.367,1.521,4.797C1.195,4.569,0.649,4.082,1.025,3.514
	C1.484,2.825,2.102,3.52,2.457,4.011c0.804,1.116,1.797,1.89,2.833,2.624c0.243,0.176,0.741,0.312,0.864,0.68
	C6.163,7.336,6.164,7.366,6.168,7.387"/>
<path fill="#322623" d="M24.47,8.328c-0.231-0.009-0.472-0.674-0.551-0.787c-0.302-0.419-0.693-0.809-1.155-1.006
	c-0.416-0.178-1.143-0.209-1.264,0.398c-0.039,0.208,0.043,0.479,0.245,0.547c0.277,0.098,0.333-0.275,0.579-0.234
	c0.538,0.091,0.263,0.705-0.023,0.891c-0.357,0.23-0.861,0.182-1.18-0.106c-0.435-0.39-0.287-1.195,0.08-1.558
	c0.467-0.456,1.218-0.264,1.753-0.071c-0.477-0.506-1.35-0.818-1.975-0.751c-0.699,0.075-1.399,0.477-1.714,1.185
	c-0.151,0.336-0.197,0.714-0.138,1.084c0.028,0.174,0.161,0.478,0.057,0.644c-0.126,0.198-0.496,0.11-0.645-0.019
	c-0.35-0.305-0.242-1.048-0.134-1.455c0.32-1.221,1.367-1.862,2.502-1.776c1.021,0.078,2.035,0.522,2.769,1.293
	c0.223,0.233,1.21,1.203,0.941,1.62C24.571,8.301,24.521,8.33,24.47,8.328"/>
<path fill="#322623" d="M64.041,3.7c0.012-0.319,0.205-0.621,0.379-0.868c0.175-0.25,0.386-0.471,0.629-0.641
	c0.735-0.516,1.654-0.56,2.492-0.386c3.557,0.74,9.168,4.66,12.783,5.41c2.858,0.592,7.524,0.085,10.738-3.22l0.02,0.081
	c-3.234,3.313-8.299,4.356-11.158,3.765c-3.956-0.82-9.291-5.279-12.328-5.909c-0.853-0.177-1.791-0.133-2.528,0.413
	c-0.263,0.194-0.491,0.448-0.666,0.739c-0.179,0.299-0.3,0.604-0.073,0.913c0.097,0.13,0.254,0.194,0.376,0.078
	c0.07-0.066,0.118-0.181,0.084-0.279c-0.018-0.052-0.07-0.175-0.135-0.175c-0.084,0.002-0.051,0.144-0.153,0.126
	c-0.13-0.024-0.125-0.246-0.062-0.329c0.077-0.1,0.231-0.092,0.336-0.07c0.123,0.024,0.223,0.107,0.274,0.23
	c0.1,0.237,0.025,0.567-0.176,0.716c-0.102,0.076-0.309,0.091-0.425,0.059c-0.239-0.064-0.393-0.324-0.407-0.582
	C64.039,3.747,64.039,3.723,64.041,3.7"/>
<path fill="#322623" d="M68.596,4.555c0.032,0.389-0.289,0.695-0.51,0.825c-0.761,0.447-1.613-0.676-1.521-1.722
	c0.154-1.729,2.693-0.509,3.289-0.25c2.385,1.038,4.504,2.914,6.82,4.184c1.951,1.082,4.717,1.644,6.489-0.313
	c1.374-1.519,0.845-4.763-1.169-4.933c-0.726-0.06-1.709,0.406-1.83,1.227C79.993,4.727,80.69,5.11,81.33,5.182
	c0.284,0.031,0.575-0.276,0.588-0.58c0.004-0.226,0.344-0.111,0.336,0.078c-0.037,0.856-0.763,0.9-1.232,0.814
	c-0.6-0.107-1.137-0.392-1.213-1.313c-0.09-1.081,0.676-2.004,1.539-2.168c0.258-0.049,0.549-0.044,0.803,0.004
	c1.308,0.259,2.408,1.751,2.045,3.642c-0.975,5.078-6.367,2.989-8.729,1.56c-1.402-0.848-2.726-1.909-4.137-2.736
	c-0.709-0.41-1.431-0.766-2.171-1.057c-0.428-0.172-0.866-0.278-1.307-0.318c-0.299-0.042-0.567,0.058-0.807,0.307
	c-0.336,0.332-0.146,1.007,0.118,1.308c0.151,0.174,0.378,0.231,0.569,0.191c0.239-0.052,0.339-0.321,0.507-0.517
	C68.374,4.237,68.569,4.297,68.596,4.555"/>
<path fill-rule="evenodd" clip-rule="evenodd" fill="#322623" d="M88.627,8.211c0.032,0.008,0.072,0.02,0.106,0.025
	c0.202,0.043,0.56,0,0.66-0.291c0.146-0.451-0.291-0.921-0.559-1.001c-0.672-0.192-1.347,0.031-1.984,0.32
	c-0.319,0.14-0.633,0.302-0.95,0.433c-0.12,0.049-0.767,0.174-0.794,0.385c-0.034,0.305,0.187,0.113,0.338,0.045
	c0.578-0.262,1.107-0.344,1.71-0.381C87.703,7.713,88.121,8.068,88.627,8.211"/>
<path fill-rule="evenodd" clip-rule="evenodd" fill="#322623" d="M84.605,6.586c-0.031,0.107,0.308-0.062,0.311-0.066
	c0.753-0.508,1.488-1.224,2.199-1.838c0.314-0.27,1.222-0.898,0.962-1.575c-0.263-0.675-0.916-0.011-1.103,0.377
	c-0.155,0.319-0.284,0.654-0.454,0.957c-0.267,0.478-0.638,0.834-0.999,1.18C85.233,5.894,84.744,6.098,84.605,6.586"/>
<path fill-rule="evenodd" clip-rule="evenodd" fill="#322623" d="M84.914,7.387c0.009,0.021,0.018,0.041,0.023,0.057
	c0.034,0.092,1.98-1.221,2.141-1.326c0.801-0.528,1.69-0.751,2.482-1.321c0.327-0.228,0.873-0.715,0.498-1.283
	c-0.459-0.689-1.078,0.006-1.431,0.497c-0.805,1.116-1.799,1.89-2.834,2.624c-0.244,0.176-0.742,0.312-0.863,0.68
	C84.919,7.336,84.918,7.366,84.914,7.387"/>
<path fill="#322623" d="M66.611,8.328c0.232-0.009,0.475-0.674,0.552-0.787c0.302-0.419,0.694-0.809,1.155-1.006
	c0.416-0.178,1.143-0.209,1.264,0.398c0.039,0.208-0.043,0.479-0.245,0.547c-0.277,0.098-0.333-0.275-0.578-0.234
	c-0.539,0.091-0.264,0.705,0.022,0.891c0.357,0.23,0.861,0.182,1.18-0.106c0.434-0.39,0.287-1.195-0.081-1.558
	c-0.467-0.456-1.217-0.264-1.753-0.071c0.478-0.506,1.353-0.818,1.976-0.751c0.699,0.075,1.399,0.477,1.715,1.185
	c0.149,0.336,0.197,0.714,0.137,1.084c-0.028,0.174-0.162,0.478-0.057,0.644c0.126,0.198,0.496,0.11,0.646-0.019
	c0.35-0.305,0.24-1.048,0.133-1.455c-0.32-1.221-1.367-1.862-2.501-1.776c-1.022,0.078-2.036,0.522-2.77,1.293
	c-0.221,0.233-1.21,1.203-0.941,1.62C66.511,8.301,66.56,8.33,66.611,8.328"/>
<path fill-rule="evenodd" clip-rule="evenodd" fill="#322623" d="M43.254,9.555c-0.061,0.419-0.848-0.068-0.971-0.196
	c-0.341-0.353-0.539-0.892-0.568-1.398c-0.065-1.201,0.796-2.244,1.727-2.748c1.966-1.064,5.085-0.41,5.81,2.102
	c0.16,0.554,0.137,1.121-0.156,1.617c-0.124,0.211-0.289,0.416-0.499,0.534c-0.111,0.065-0.356,0.143-0.443-0.011
	c-0.045-0.081,0.016-0.138,0.041-0.212c0.038-0.101,0.03-0.207-0.016-0.302c-0.142-0.29-0.478-0.359-0.716-0.17
	c-0.406,0.323-0.178,0.944,0.234,1.083c1.114,0.371,2.393-0.674,3.297-1.217c1.227-0.736,2.413-1.539,3.599-2.354
	c2.034-1.399,4.792-2.875,7.233-1.889c0.912,0.366,2.028,1.258,2.18,2.377c0.066,0.497-0.047,1.167-0.453,1.469
	c-0.293,0.219-0.949,0.27-1.18-0.087c-0.105-0.163,0.014-0.352-0.057-0.521c-0.096-0.233-0.343,0.011-0.419,0.117
	c-0.321,0.439-0.237,1.003,0.193,1.318c0.865,0.628,2.01,0.017,2.281-1.008c0.268-1.014-0.217-2.102-0.841-2.839
	c-0.649-0.769-1.552-1.191-2.485-1.376c-0.602-0.117-1.228-0.156-1.838-0.117c-0.356,0.024-0.708,0.086-1.051,0.185
	c-0.332,0.096-0.83,0.174-1.105,0.403c0.076-0.064,0.575-1.506,0.575-1.506s-1.845,0.661-2.839,1.615
	c-0.565,0.544-1.144,1.156-1.619,1.715c0.086-0.443,0.18-0.884,0.198-1.338c-0.276-0.01-0.685,0.57-0.861,0.762
	c-0.347,0.377-0.659,0.791-0.96,1.213c-0.637,0.889-1.363,1.593-2.137,2.337c0.262-0.251,0.268-0.919,0.253-1.269
	c-0.028-0.645-0.305-1.33-0.697-1.814c-0.875-1.082-2.094-1.577-3.391-1.641c-1.284-0.063-2.633,0.523-3.469,1.588
	c-0.323,0.411-0.586,1.021-0.657,1.554c-0.088,0.649,0.182,1.168,0.376,1.756c-0.848-0.115-1.606-1.211-2.042-1.923
	C39.5,6.91,39.224,6.449,38.912,6.022c-0.23-0.315-0.556-0.858-0.927-0.992c-0.053,0.416,0.091,0.839,0.124,1.251
	c-0.25-0.064-0.546-0.439-0.722-0.632c-0.949-1.039-2.041-2.188-3.26-2.884c0.031,0.498,0.184,0.975,0.296,1.456
	c-1.274-0.525-2.445-0.959-3.835-0.896c-1.266,0.06-2.471,0.587-3.246,1.707c-0.634,0.916-0.98,2.514-0.263,3.482
	c0.308,0.416,0.759,0.739,1.269,0.641c0.459-0.092,0.915-0.513,0.888-1.059c-0.009-0.177-0.083-0.473-0.291-0.475
	c-0.171-0.003-0.273,0.228-0.367,0.35c-0.328,0.423-0.997-0.058-1.233-0.385c-0.653-0.903-0.005-2.379,0.696-2.992
	c1.946-1.708,4.635-0.709,6.582,0.431c2.363,1.383,4.439,3.313,6.873,4.549c0.572,0.291,2.414,0.944,2.547-0.23
	c0.039-0.338-0.141-0.708-0.473-0.754c-0.232-0.033-0.439,0.098-0.545,0.324c-0.054,0.122-0.06,0.252,0.012,0.367
	C43.095,9.372,43.272,9.433,43.254,9.555"/>
<path fill-rule="evenodd" clip-rule="evenodd" fill="#322623" d="M45.795,9.218c-0.059,0.185-0.099,0.265-0.232,0.265
	c-0.135,0-0.198-0.143-0.247-0.282c-0.049-0.136-0.974-2.867-1.42-3.437c0.066-0.025,0.11-0.056,0.182-0.027
	c0.566,0.224,1.259,1.961,1.259,1.961s-0.024-1.87,0.124-2.467c0.027-0.115,0.061-0.119,0.102-0.119
	c0.043,0,0.076,0.005,0.105,0.122c0.143,0.598,0.119,2.446,0.119,2.446s0.703-1.719,1.251-1.961c0.079-0.035,0.12,0.012,0.191,0.045
	C46.732,6.344,45.865,8.996,45.795,9.218"/>
<path fill-rule="evenodd" clip-rule="evenodd" fill="#322623" d="M40.044,4.543c0.072,0.104-0.142,0.238-0.203,0.256
	c-0.109,0.034-0.236,0.026-0.343-0.011c-0.21-0.07-0.459-0.229-0.56-0.45c-0.321-0.699,0.013-1.439,0.667-1.686
	c1.006-0.38,2.006,0.265,2.719,0.995c0.209,0.212,0.393,0.451,0.586,0.681c0.069,0.083,0.14,0.165,0.212,0.245
	c0.047,0.052,0.082,0.107,0.152,0.095c0.16-0.027,0.078-0.166,0.024-0.251c-0.07-0.112-0.142-0.222-0.218-0.329
	c-0.152-0.215-0.316-0.421-0.492-0.613c-0.652-0.709-1.763-1.403-2.719-1.33c-0.247,0.021-0.569,0.109-0.775,0.27
	c-0.477,0.376-0.803,0.968-0.662,1.622c0.218,1.022,1.57,1.699,2.091,0.512c0.208-0.48-0.194-1.167-0.712-0.997
	c-0.212,0.069-0.34,0.322-0.342,0.554c-0.002,0.154,0.067,0.279,0.197,0.348c0.06,0.032,0.125,0.049,0.192,0.062
	C39.891,4.522,40.024,4.515,40.044,4.543"/>
<path fill-rule="evenodd" clip-rule="evenodd" fill="#322623" d="M51.082,4.543c-0.072,0.104,0.142,0.238,0.203,0.256
	c0.109,0.034,0.236,0.026,0.344-0.011c0.209-0.07,0.459-0.229,0.559-0.45c0.322-0.699-0.013-1.439-0.667-1.686
	c-1.007-0.38-2.007,0.265-2.718,0.995c-0.211,0.212-0.395,0.451-0.588,0.681c-0.069,0.083-0.139,0.165-0.211,0.245
	c-0.047,0.052-0.082,0.107-0.152,0.095c-0.16-0.027-0.077-0.166-0.024-0.251c0.07-0.112,0.143-0.222,0.218-0.329
	c0.152-0.215,0.314-0.421,0.491-0.613c0.653-0.709,1.762-1.403,2.719-1.33c0.248,0.021,0.569,0.109,0.774,0.27
	c0.478,0.376,0.806,0.968,0.663,1.622c-0.216,1.022-1.569,1.699-2.088,0.512c-0.21-0.48,0.191-1.167,0.709-0.997
	c0.212,0.069,0.342,0.322,0.343,0.554c0,0.154-0.069,0.279-0.196,0.348c-0.061,0.032-0.128,0.049-0.192,0.062
	C51.234,4.522,51.102,4.515,51.082,4.543"/>
<path fill-rule="evenodd" clip-rule="evenodd" fill="#322623" d="M47.972,0.4c-0.138,0.63-0.566,1.116-0.962,1.57
	c-0.422,0.487-0.83,0.989-1.099,1.593c-0.08,0.179-0.138,0.417-0.348,0.459c-0.209-0.042-0.268-0.28-0.347-0.459
	c-0.269-0.604-0.678-1.106-1.099-1.593c-0.398-0.454-0.824-0.94-0.962-1.57c-0.038-0.175,0.021-0.35,0.195-0.393
	c0.381-0.089,0.816,0.622,1.002,0.897c0.28,0.422,0.508,0.881,0.769,1.318c0.116,0.192,0.204,0.395,0.442,0.395
	c0.24,0,0.327-0.203,0.441-0.395c0.262-0.437,0.489-0.896,0.771-1.318c0.185-0.275,0.62-0.986,1.001-0.897
	C47.95,0.05,48.011,0.225,47.972,0.4"/>
<path fill-rule="evenodd" clip-rule="evenodd" fill="#322623" d="M36.612,8.365c-0.034,0.043-0.077,0.076-0.128,0.097
	c-0.049,0.02-0.107,0.026-0.17,0.014C36.009,8.421,36,7.902,36.298,7.832c-0.857-0.676-1.714-0.936-2.76-0.844
	c-0.878,0.075-1.165,0.908-1.721,0.403c0.167-0.187,0.553-0.335,0.449-0.647c-0.075-0.223-0.473-0.308-0.65-0.34
	c-0.288-0.055-0.673-0.062-0.919,0.136c-0.495,0.397-0.029,1.27,0.318,0.778c-0.013,0.022-0.289-0.209-0.111-0.372
	c0.103-0.097,0.339-0.01,0.418,0.085c0.154,0.192,0.148,0.546-0.007,0.733c-0.703,0.841-1.817-0.657-1.267-1.458
	c0.641-0.927,1.918-0.708,3.334-0.302c0.589,0.17,2.632,0.849,3.28,1.839C36.764,7.998,36.72,8.231,36.612,8.365"/>
<path fill-rule="evenodd" clip-rule="evenodd" fill="#322623" d="M54.511,8.365c0.036,0.043,0.079,0.076,0.13,0.097
	c0.05,0.02,0.105,0.026,0.171,0.014c0.304-0.055,0.312-0.574,0.015-0.644c0.855-0.676,1.712-0.936,2.759-0.844
	c0.877,0.075,1.165,0.908,1.721,0.403c-0.166-0.187-0.553-0.335-0.448-0.647c0.075-0.223,0.471-0.308,0.651-0.34
	c0.287-0.055,0.671-0.062,0.916,0.136c0.496,0.397,0.031,1.27-0.318,0.778c0.013,0.022,0.289-0.209,0.112-0.372
	c-0.104-0.097-0.339-0.01-0.417,0.085c-0.156,0.192-0.148,0.546,0.006,0.733c0.703,0.841,1.818-0.657,1.266-1.458
	c-0.639-0.927-1.916-0.708-3.333-0.302c-0.587,0.17-2.632,0.849-3.279,1.839C54.36,7.998,54.404,8.231,54.511,8.365"/>
<path fill-rule="evenodd" clip-rule="evenodd" fill="#322623" d="M45.117,0.482c0.023-0.024,0.052-0.043,0.08-0.053
	c0.158-0.063,0.303,0.112,0.378,0.251c0.058-0.145,0.202-0.346,0.352-0.272c0.286,0.136,0.148,0.523,0.038,0.73
	c-0.057,0.109-0.287,0.647-0.409,0.647c-0.133,0-0.334-0.48-0.414-0.7C45.072,0.893,44.939,0.645,45.117,0.482"/>
<rect y="0" fill="none" width="91.082" height="10.019"/>
</svg>
