<?xml version="1.0" encoding="utf-8"?>
<!-- Generator: Adobe Illustrator 17.0.0, SVG Export Plug-In . SVG Version: 6.00 Build 0)  -->
<!DOCTYPE svg PUBLIC "-//W3C//DTD SVG 1.1//EN" "http://www.w3.org/Graphics/SVG/1.1/DTD/svg11.dtd">
<svg version="1.1" id="Your_Icon" xmlns="http://www.w3.org/2000/svg" xmlns:xlink="http://www.w3.org/1999/xlink" x="0px" y="0px"
	 width="28.825px" height="46.337px" viewBox="31.975 4.013 28.825 46.337" enable-background="new 31.975 4.013 28.825 46.337"
	 xml:space="preserve">
<g>
	<path fill="#FFFFFF" d="M47.582,4.013h-2.391c-7.435,0.595-13.216,6.821-13.216,14.302v17.622c0,7.947,6.465,14.412,14.411,14.412
		c7.948,0,14.414-6.465,14.414-14.412V18.315C60.799,10.839,55.018,4.612,47.582,4.013z M58.408,35.937
		c0,6.63-5.393,12.021-12.023,12.021c-6.628,0-12.02-5.391-12.02-12.021V18.315c0-6.628,5.393-12.021,12.02-12.021
		c6.629,0,12.023,5.393,12.023,12.021V35.937z"/>
	<path fill="#FFFFFF" d="M46.387,16.238c-1.071,0-1.938,0.867-1.938,1.939v4.992c0,1.071,0.867,1.939,1.938,1.939
		c1.07,0,1.938-0.868,1.938-1.939v-4.992C48.325,17.106,47.457,16.238,46.387,16.238z"/>
</g>
</svg>
