<?xml version="1.0" encoding="utf-8"?>
<!-- Generator: Adobe Illustrator 17.0.0, SVG Export Plug-In . SVG Version: 6.00 Build 0)  -->
<!DOCTYPE svg PUBLIC "-//W3C//DTD SVG 1.1//EN" "http://www.w3.org/Graphics/SVG/1.1/DTD/svg11.dtd">
<svg version="1.1" id="Your_Icon" xmlns="http://www.w3.org/2000/svg" xmlns:xlink="http://www.w3.org/1999/xlink" x="0px" y="0px"
	 width="37.956px" height="61.015px" viewBox="31.975 4.013 37.956 61.015" enable-background="new 31.975 4.013 37.956 61.015"
	 xml:space="preserve">
<g>
	<path fill="#FFFFFF" d="M52.526,4.013h-3.148c-9.79,0.784-17.403,8.982-17.403,18.833V46.05c0,10.464,8.513,18.978,18.976,18.978
		c10.466,0,18.98-8.513,18.98-18.978V22.845C69.93,13.001,62.318,4.802,52.526,4.013z M66.781,46.05
		c0,8.73-7.102,15.829-15.831,15.829c-8.727,0-15.828-7.099-15.828-15.829V22.845c0-8.728,7.101-15.829,15.828-15.829
		c8.729,0,15.831,7.101,15.831,15.829V46.05z"/>
	<path fill="#FFFFFF" d="M50.952,20.111c-1.41,0-2.552,1.142-2.552,2.553v6.573c0,1.41,1.142,2.553,2.552,2.553
		c1.409,0,2.552-1.143,2.552-2.553v-6.573C53.504,21.254,52.361,20.111,50.952,20.111z"/>
</g>
</svg>
